# xmcd CD database file
# Copyright (C) 1997 Ti Kan
# 
# Track frame offsets:
#     182
#     12920
#     26655
#     42037
#     58582
#     71155
#     84220
#     99785
#     111582
#     123885
#     134202
#     146907
# 
# Disc length: 2137 seconds
# 
# Revision: 1
# Processed by: cddbd v1.4b41PL1 Copyright (c) Steve Scherf et al.
# Submitted via: DiscPlay 4.0.4
# 
DISCID=a708570c
DTITLE=Barry White - Your Heart and Soul
DYEAR=1900
DGENRE=
TTITLE0=I've got the world to hold me up
TTITLE1=Under the influence of love
TTITLE2=Your Heart and soul
TTITLE3=Long black veil
TTITLE4=All in the run of love
TTITLE5=Fragile - Handle with care
TTITLE6=Come on in love
TTITLE7=When can I turn to
TTITLE8=Out of the Shadows of love
TTITLE9=I owe it all to you
TTITLE10=Big Man
TTITLE11=My Buddy
EXTD=
EXTT0=
EXTT1=
EXTT2=
EXTT3=
EXTT4=
EXTT5=
EXTT6=
EXTT7=
EXTT8=
EXTT9=
EXTT10=
EXTT11=
PLAYORDER=
